<?xml version="1.0" encoding="UTF-8"?>
<svg width="127px" height="34px" viewBox="0 0 127 34" version="1.1" xmlns="http://www.w3.org/2000/svg" xmlns:xlink="http://www.w3.org/1999/xlink">
    <title>Fidelity Logo</title>
    <defs>
        <polygon id="path-1" points="92.4862662 6.94106383 126.994816 6.94106383 126.994816 33.4140426 92.4862662 33.4140426"></polygon>
    </defs>
    <g id="Page-1" stroke="none" stroke-width="1" fill="none" fill-rule="evenodd">
        <g id="Artboard-Copy-6" transform="translate(-16.000000, -14.000000)">
            <g id="Fidelity-Logo" transform="translate(16.000000, 14.000000)">
                <polyline id="Fill-1" fill="#FFFFFE" points="8.07227551 25.7604255 0 25.7604255 6.46404082 0 23.0109745 0 21.4338418 6.11204255 12.9902857 6.11204255 11.9075459 10.4980426 20.351102 10.4980426 18.9281837 16.1254043 10.4846276 16.1254043 8.07227551 25.7604255"></polyline>
                <path d="M31.9184694,5.14557447 L23.938852,5.14557447 L25.2380102,0 L33.2169796,0 L31.9184694,5.14557447 Z M26.7529388,25.7604255 L18.7733214,25.7604255 L23.5053673,6.94106383 L31.4856327,6.94106383 L26.7529388,25.7604255 L26.7529388,25.7604255 Z" id="Fill-2" fill="#FFFFFE"></path>
                <path d="M41.4538367,12.5337021 C40.7423776,12.5337021 40.0309184,12.7774894 39.6291837,13.8806809 C39.0414847,15.4692766 38.5153418,17.0231489 38.5153418,18.5770213 C38.5153418,19.3033191 38.9792806,19.924 39.7522959,19.924 C40.3710969,19.924 40.7734796,19.7171064 41.1130102,19.4762128 L42.7218929,13.294 C42.4439184,12.8454894 41.9482296,12.5337021 41.4538367,12.5337021 Z M47.4539388,25.7604255 L39.6291837,25.7604255 L40.1851327,23.6538723 C38.608,25.1390213 36.9997653,26.2082128 34.432551,26.2082128 C31.8348827,26.2082128 30.1955459,24.8265106 30.1955459,21.892383 C30.1955459,18.6464681 31.3404898,13.8119574 33.0413827,10.4285957 C34.2783367,7.90825532 36.5053724,6.596 39.1341429,6.596 C41.3916327,6.596 43.0620714,7.69991489 43.7119745,9.08161702 L45.9383622,0 L53.9186276,0 L47.4539388,25.7604255 L47.4539388,25.7604255 Z" id="Fill-3" fill="#FFFFFE"></path>
                <path d="M62.0051582,11.223617 C61.0163724,11.223617 60.3353673,11.9824681 59.9018827,13.8806809 L63.1812041,13.8806809 C63.2738622,13.501617 63.3976224,12.9142128 63.3976224,12.5684255 C63.3976224,11.533234 62.8403776,11.223617 62.0051582,11.223617 Z M69.9854235,17.5418298 L58.9746531,17.5418298 C58.7575867,18.5422979 58.5418163,19.2338723 58.5418163,20.0274468 C58.5418163,20.407234 58.6033724,21.3744255 59.7172143,21.3744255 C60.8304082,21.3744255 61.324801,20.8904681 61.7887398,19.0609787 L69.6134949,19.0609787 C68.6240612,24.4134468 62.9336837,26.2422128 59.4385918,26.2422128 C54.705898,26.2422128 51.0261378,25.4833617 51.0261378,20.407234 C51.0261378,17.6105532 52.2935459,12.9829362 53.9639847,10.532766 C55.974602,7.59646809 59.4690459,6.4932766 62.6861633,6.4932766 C67.6352755,6.4932766 70.8510969,7.63191489 70.8510969,12.3275319 C70.8510969,13.467617 70.4189082,15.9879574 69.9854235,17.5418298 L69.9854235,17.5418298 Z" id="Fill-4" fill="#FFFFFE"></path>
                <polyline id="Fill-5" fill="#FFFFFE" points="78.0052143 25.7604255 70.024301 25.7604255 76.4889898 0 84.4686071 0 78.0052143 25.7604255"></polyline>
                <path d="M93.7123929,5.14557447 L85.7321276,5.14557447 L87.0312857,0 L95.011551,0 L93.7123929,5.14557447 Z M88.5475102,25.7604255 L80.5672449,25.7604255 L85.2992908,6.94106383 L93.2795561,6.94106383 L88.5475102,25.7604255 L88.5475102,25.7604255 Z" id="Fill-6" fill="#FFFFFE"></path>
                <path d="M108.057561,6.94106383 L108.752821,11.1881702 L102.645158,11.1881702 L100.851607,18.3361277 C100.696745,18.8880851 100.572985,19.5782128 100.572985,20.0274468 C100.572985,20.8557447 100.882061,21.1335319 101.964153,21.1335319 L103.665694,21.1335319 L102.490296,25.7604255 L95.376352,25.7604255 C93.0255561,25.7604255 92.1287806,24.4828936 92.1287806,22.5477872 C92.1287806,21.7549362 92.2220867,20.8904681 92.4702551,19.924 L96.7992704,2.76195745 L104.779536,2.76195745 L103.72725,6.94106383 L108.057561,6.94106383" id="Fill-7" fill="#FFFFFE"></path>
                <path d="M120.823829,27.1515319 C119.302829,27.1515319 118.069829,25.9185319 118.069829,24.3975319 C118.069829,22.8765319 119.302829,21.6435319 120.823829,21.6435319 C122.344829,21.6435319 123.576829,22.8765319 123.576829,24.3975319 C123.576829,25.9185319 122.344829,27.1515319 120.823829,27.1515319 Z M120.823829,21.0495319 C118.977829,21.0495319 117.474829,22.5525319 117.474829,24.3975319 C117.474829,26.2425319 118.977829,27.7455319 120.823829,27.7455319 C122.667829,27.7455319 124.171829,26.2425319 124.171829,24.3975319 C124.171829,22.5525319 122.667829,21.0495319 120.823829,21.0495319 L120.823829,21.0495319 Z" id="Fill-16" fill="#FFFFFE"></path>
                <path d="M120.20676,24.1694681 L120.20676,23.2024681 L120.66976,23.2024681 C121.05976,23.1944681 121.49076,23.2184681 121.49076,23.6814681 C121.49076,24.1444681 121.05976,24.1694681 120.66976,24.1694681 L120.20676,24.1694681 Z M122.12376,23.7064681 C122.12376,23.0404681 121.73376,22.6664681 120.90576,22.6664681 L119.60476,22.6664681 L119.60476,26.1184681 L120.20676,26.1184681 L120.20676,24.7054681 L120.66976,24.7054681 L121.53076,26.1184681 L122.19676,26.1184681 L121.29576,24.6564681 C121.76676,24.5994681 122.12376,24.3064681 122.12376,23.7064681 L122.12376,23.7064681 Z" id="Fill-17" fill="#FFFFFE"></path>
                <mask id="mask-2" fill="white">
                    <use xlink:href="#path-1"></use>
                </mask>
                <g id="Clip-23"></g>
                <path d="M118.829883,6.94106383 L114.500219,17.3696596 L114.623332,6.94106383 L106.551056,6.94106383 L108.097087,25.7604255 C107.900107,26.8628936 107.572888,27.4828511 106.954087,27.7895745 C106.276969,28.1266809 104.745194,28.0666383 104.206092,28.0326383 L104.10825,28.0391489 L102.835658,33.1528936 L108.282403,33.1586809 C111.498872,33.1586809 113.076653,31.3537872 115.365893,27.3490213 L126.994816,6.94106383 L118.829883,6.94106383" id="Fill-22" fill="#FFFFFE" mask="url(#mask-2)"></path>
            </g>
        </g>
    </g>
</svg>