<!-- Generated by IcoMoon.io -->
<svg version="1.1" xmlns="http://www.w3.org/2000/svg" width="768" height="768" viewBox="0 0 768 768">
<title>help-circle</title>
<g id="icomoon-ignore">
</g>
<path fill="#0E67A9" d="M736 384c0-97.184-39.424-185.248-103.104-248.896s-151.712-103.104-248.896-103.104-185.248 39.424-248.896 103.104-103.104 151.712-103.104 248.896 39.424 185.248 103.104 248.896 151.712 103.104 248.896 103.104 185.248-39.424 248.896-103.104 103.104-151.712 103.104-248.896zM672 384c0 79.552-32.192 151.488-84.352 203.648s-124.096 84.352-203.648 84.352-151.488-32.192-203.648-84.352-84.352-124.096-84.352-203.648 32.192-151.488 84.352-203.648 124.096-84.352 203.648-84.352 151.488 32.192 203.648 84.352 84.352 124.096 84.352 203.648zM321.056 298.624c5.856-16.672 17.888-29.376 32.704-36.48s32.224-8.544 48.896-2.656c14.656 5.152 26.208 15.040 33.6 27.488 5.856 9.824 9.088 21.28 9.152 33.184 0 4.96-1.248 9.888-3.744 14.848-2.56 5.12-6.496 10.4-11.776 15.68-22.688 22.688-58.592 34.944-58.592 34.944-16.768 5.6-25.824 23.712-20.224 40.48s23.712 25.824 40.48 20.224c0 0 49.408-16.192 83.616-50.4 8.928-8.928 17.44-19.648 23.776-32.32 6.4-12.8 10.496-27.456 10.496-43.808-0.128-23.392-6.528-45.984-18.144-65.568-14.816-24.896-38.080-44.864-67.36-55.168-33.344-11.712-68.32-8.8-97.824 5.344s-53.696 39.616-65.408 72.96c-5.888 16.672 2.88 34.944 19.552 40.8s34.944-2.912 40.8-19.552zM384 576c17.664 0 32-14.336 32-32s-14.336-32-32-32-32 14.336-32 32 14.336 32 32 32z"></path>
</svg>
